<?xml version="1.0" encoding="UTF-8"?><svg id="a" xmlns="http://www.w3.org/2000/svg" width="797.7" height="112.6" viewBox="0 0 797.7 112.6"><rect x="398.1" y="108.6" width="399.6" height="4" fill="#005a8d"/><rect x="398.1" width="399.5" height="9.24" fill="#005a8d"/><path d="M4.2,80.9c7.01,3.55,14.74,5.47,22.6,5.6,9.3,0,14.3-3.9,14.3-9.7s-4.3-8.8-15.1-12.7C11,58.9,1.3,50.7,1.3,37.6c0-15.3,12.8-27,34-27,7.9-.18,15.75,1.35,23,4.5l-4.6,16.4c-5.85-2.87-12.29-4.34-18.8-4.3-8.8,0-13.1,4-13.1,8.7s5.1,8.2,16.7,12.6c15.9,5.9,23.4,14.1,23.4,26.8,0,15-11.6,27.8-36.4,27.8-10.2,0-20.4-2.6-25.5-5.4l4.2-16.8Z" fill="#231f20"/><path d="M75.6,13.2c9.13-1.4,18.37-2,27.6-1.8,12.5,0,21.5,2.4,27.5,7.2,6.23,5.04,9.78,12.69,9.6,20.7,0,8.8-2.9,16.3-8.3,21.3-6.9,6.6-17.2,9.5-29.2,9.5-2.31.02-4.61-.12-6.9-.4v32.1h-20.3V13.2ZM95.8,54c2.24.42,4.52.59,6.8.5,10.8,0,17.5-5.4,17.5-14.6s-5.7-13.2-15.9-13.2c-2.82-.08-5.64.19-8.4.8v26.5Z" fill="#231f20"/><path d="M235.7,56c0,29.4-17.9,47.3-44.2,47.3s-42.4-20.1-42.4-45.7,17.3-47,43.8-47,42.8,20.6,42.8,45.4ZM170.6,57.2c0,17.6,8.3,30,21.9,30s21.7-13,21.7-30.5-7.8-30-21.8-30-21.8,13-21.8,30.5h0Z" fill="#231f20"/><path d="M249,13.2c9.01-1.3,18.1-1.9,27.2-1.8,13.3,0,22.7,2,29.1,7s8.3,10.5,8.3,18.8c0,11.5-8.2,19.3-15.9,22.1v.4c6.2,2.5,9.7,8.5,12,16.8,2.8,10.1,5.6,21.8,7.3,25.3h-20.8c-1.5-2.5-3.6-9.8-6.3-20.9s-6.3-14.3-14.5-14.4h-6.2v35.3h-20.2V13.2ZM269.2,51.9h8c10.2,0,16.2-5.1,16.2-13s-5.6-12.4-15-12.5c-3.08-.02-6.16.21-9.2.7v24.8Z" fill="#231f20"/><path d="M345.6,29h-24.2V12h69.2v17h-24.5v72.8h-20.5V29Z" fill="#231f20"/><path d="M748.3,30.2h-.3c-1.3,5.3-2.7,12.1-4.1,17.3l-5.4,19.1h19.9l-5.6-19.1c-1.6-5.3-3.2-12-4.5-17.3Z" fill="#005a8d"/><path d="M663.6,28.4c-3.08-.02-6.16.21-9.2.7v24.8h8c10.1,0,16.1-5.1,16.1-13s-5.6-12.4-14.9-12.5Z" fill="#005a8d"/><path d="M398.1,6.2v102.4h399.6V6.2h-399.6ZM464.4,100.8h-57.5V11h55.6v16.7h-35.1v18.6h33.1v16.5h-33.1v21.4h37v16.6ZM525.7,100.8l-8.1-16.2c-3.4-6.3-5.5-11-8-16.2h-.3c-1.9,5.2-4.1,9.9-7,16.2l-7.5,16.2h-23.2l26.1-45.4-25.2-44.4h23.4l7.9,16.4c2.7,5.5,4.7,9.9,6.8,14.9h.3c2.1-5.7,3.9-9.7,6.1-14.9l7.6-16.4h23.3l-25.4,43.9,26.7,46-23.5-.1ZM623.4,28h-24.6v72.8h-20.5V28h-24.1V11h69.2v17ZM681.4,100.8c-1.5-2.6-3.6-9.9-6.3-20.9s-6.3-14.3-14.6-14.4h-6.1v35.3h-20.2V12.2c8.97-1.3,18.03-1.9,27.1-1.8,13.4,0,22.7,2,29.1,7s8.3,10.5,8.3,18.8c0,11.5-8.1,19.3-15.9,22.1v.4c6.3,2.5,9.8,8.5,12,16.8,2.8,10.1,5.6,21.8,7.4,25.3h-20.8ZM768.4,100.8l-7-23h-25.8l-6.4,23h-21.1l27.5-89.8h26.7l27.9,89.8h-21.8Z" fill="#005a8d"/></svg>